<svg width="26" height="26" xmlns="http://www.w3.org/2000/svg">

 <g>
  <title>background</title>
  <rect fill="none" id="canvas_background" height="402" width="582" y="-1" x="-1"/>
 </g>
 <g>
  <title>Layer 1</title>
  <path opacity="0.95" id="svg_1" fill="#ffffff" d="m25,13c0,-6.6167 -5.38281,-12 -12,-12s-12,5.3833 -12,12c0,3.38361 1.41321,6.43866 3.67365,8.62225c0.05291,0.06891 0.1156,0.12476 0.18896,0.17182c2.14124,1.98285 4.99567,3.20593 8.13739,3.20593s5.99615,-1.22308 8.13739,-3.20593c0.07336,-0.04706 0.13605,-0.10291 0.18896,-0.17182c2.26044,-2.18359 3.67365,-5.23864 3.67365,-8.62225zm-12,-10.5c5.79004,0 10.5,4.71045 10.5,10.5c0,2.45496 -0.85327,4.71082 -2.27026,6.50085c-0.65052,-2.09783 -2.50763,-3.74011 -5.02814,-4.49578c1.3736,-0.99408 2.27203,-2.60462 2.27203,-4.4245c0,-3.01416 -2.45508,-5.46631 -5.47363,-5.46631s-5.47363,2.45215 -5.47363,5.46631c0,1.81988 0.89843,3.43042 2.27203,4.4245c-2.52051,0.75567 -4.37762,2.39795 -5.02814,4.49578c-1.41699,-1.79003 -2.27026,-4.04589 -2.27026,-6.50085c0,-5.78955 4.70996,-10.5 10.5,-10.5zm-3.97363,8.08057c0,-2.18702 1.78222,-3.96631 3.97363,-3.96631s3.97363,1.77929 3.97363,3.96631s-1.78222,3.96631 -3.97363,3.96631s-3.97363,-1.7793 -3.97363,-3.96631zm-2.99561,10.2514c0.22547,-2.74994 3.1416,-4.78509 6.96924,-4.78509s6.74377,2.03515 6.96924,4.78509c-1.85614,1.65356 -4.29352,2.66803 -6.96924,2.66803s-5.1131,-1.01447 -6.96924,-2.66803z"/>
  <path d="m5.226739,6.839207c0,0.070346 -0.165823,0.510296 -0.351731,0.914502c-0.171399,0.372658 -0.29477,0.695128 -0.422078,0.914501c-0.078953,0.136049 -0.253996,0.433283 -0.351731,0.633117c-0.111436,0.227846 -0.211038,0.492424 -0.281385,0.633117c-0.070346,0.140692 -0.12453,0.353613 -0.140692,0.422077c-0.03614,0.153091 -0.110409,0.290742 -0.211039,0.56277c-0.109149,0.295057 -0.068133,0.380719 -0.211039,0.633117c-0.098032,0.173142 -0.207885,0.249669 -0.281385,0.492423c-0.061156,0.201984 -0.108368,0.355494 -0.140692,0.492424c-0.03614,0.153091 -0.043426,0.28674 -0.070346,0.351731c-0.038071,0.091912 -0.070346,0.211039 -0.070346,0.351731c0,0.281385 0,0.492424 0,0.56277c0,0.140693 0,0.281385 0,0.422078c0,0.070346 -0.070004,0.204106 0,0.211039c0.356951,0.035345 0.351731,-0.773809 0.492424,-1.125541l0.070346,-0.070346" id="svg_4" stroke-opacity="null" stroke-width="null" stroke="null" fill="none"/>
  <path d="m7.126088,6.135744c-0.070346,-0.070346 -0.496605,0.981543 -0.773809,1.336579c-1.142941,1.46385 -1.4392,1.877783 -1.477271,1.969695c-0.02692,0.064991 -0.04077,0.134655 0,0c0.441,-1.456524 1.824088,-2.748462 2.391773,-3.306274c2.022686,-1.987513 3.016551,-2.632653 3.587658,-3.024889c0.246019,-0.168966 0.21104,-0.140692 0.21104,-0.140692c-0.140693,0.281385 -0.659051,1.081128 -1.266233,1.68831c-0.607182,0.607182 -0.9258,0.897113 -1.477271,1.12554c-0.064991,0.02692 -0.281384,0 -0.351731,0c-0.070346,0 -0.140693,0 -0.140693,0c-0.070346,0 -0.210904,0.0521 -0.351731,-0.211039c-0.169254,-0.316254 -0.066727,-0.724475 -0.140693,-0.844155c-0.082697,-0.133806 -0.554881,0.438822 -1.406925,1.12554c-0.911579,0.734701 -1.687783,1.345174 -1.617964,1.336579c0.287872,-0.035439 0.708299,-0.555604 1.336579,-0.984848c0.709012,-0.484399 1.266232,-0.914502 1.547617,-1.055194c0.140692,-0.070346 0.361087,-0.180755 0.633116,-0.281385c0.147529,-0.054574 0.281385,-0.211039 0.281385,0.070346l0,0.211039" id="svg_5" stroke-opacity="null" stroke-width="null" stroke="null" fill="none"/>
  <path d="m5.719162,13.100023c0,0.281385 0.108789,1.141772 -0.070346,1.969695c-0.221153,1.02212 -0.738515,1.472907 -0.773809,1.89935c-0.017406,0.21032 0,0.35173 0,0.492422c0,0.140694 0.140692,0.140694 0.140692,0.140694c0.351731,-0.281385 1.051308,-0.642275 1.758657,-1.477272c0.391148,-0.461735 0.640002,-0.831804 0.773809,-0.914501c0.05984,-0.036983 0.211039,0 0.422078,0c0.140692,0 0.211038,0 0.281385,0c0.070346,0 0.070346,0 0.140693,0c0.070346,0 0.075701,0.02692 0.140692,0c0.091912,-0.038071 0.070346,-0.070346 0.140693,-0.140693c0.070347,-0.070347 0.070347,-0.070346 0.140693,-0.070346c0.070346,0 0.140693,0 0.140693,0l0.070346,0l0.070347,0" id="svg_6" stroke-opacity="null" stroke-width="null" stroke="null" fill="none"/>
  <polyline stroke-linecap="round" id="svg_7" points="37.30463120333604,7.401976903102815 37.30463120333604,7.401976903102815 37.44532371391976,7.401976903102815 " stroke-opacity="null" stroke-width="null" stroke="null" fill="none"/>
 </g>
</svg>